<svg viewBox="0 0 16 16" xmlns="http://www.w3.org/2000/svg" xmlns:xlink="http://www.w3.org/1999/xlink" width="16.000000" height="16.000000" fill="none" customFrame="#000000">
	<rect id="flower-2" width="16.000000" height="16.000000" x="0.000000" y="0.000000" />
	<path id="矢量 16" d="M8 3.99992L8 3.33325C8 2.93769 8.1173 2.55101 8.33706 2.22211C8.55682 1.89321 8.86918 1.63687 9.23463 1.48549C9.60009 1.33412 10.0022 1.29451 10.3902 1.37168C10.7781 1.44885 11.1345 1.63933 11.4142 1.91904C11.6939 2.19874 11.8844 2.55511 11.9616 2.94307C12.0387 3.33103 11.9991 3.73317 11.8478 4.09862C11.6964 4.46407 11.44 4.77643 11.1111 4.99619C10.7822 5.21595 10.3956 5.33325 10 5.33325M8 3.33325C8 2.93769 7.8827 2.55101 7.66294 2.22211C7.44318 1.89321 7.13082 1.63687 6.76537 1.48549C6.39992 1.33412 5.99778 1.29451 5.60982 1.37168C5.22186 1.44885 4.86549 1.63933 4.58579 1.91904C4.30608 2.19874 4.1156 2.55511 4.03843 2.94307C3.96126 3.33103 4.00087 3.73317 4.15224 4.09862C4.30362 4.46407 4.55996 4.77643 4.88886 4.99619C5.21776 5.21596 5.60444 5.33325 6 5.33325L6.66667 5.33325M6 5.33325C5.60444 5.33325 5.21776 5.45055 4.88886 5.67031C4.55996 5.89008 4.30362 6.20243 4.15224 6.56789C4.00087 6.93334 3.96126 7.33547 4.03843 7.72343C4.1156 8.1114 4.30608 8.46776 4.58579 8.74747C4.86549 9.02717 5.22186 9.21765 5.60982 9.29482C5.99778 9.37199 6.39992 9.33239 6.76537 9.18101C7.13082 9.02964 7.44318 8.77329 7.66294 8.44439C7.8827 8.1155 8 7.72882 8 7.33325L8 6.66659M9.33333 5.33325L10 5.33325C10.3956 5.33325 10.7822 5.45055 11.1111 5.67031C11.44 5.89008 11.6964 6.20243 11.8478 6.56789C11.9991 6.93334 12.0387 7.33547 11.9616 7.72343C11.8844 8.1114 11.6939 8.46776 11.4142 8.74747C11.1345 9.02717 10.7781 9.21765 10.3902 9.29482C10.0022 9.37199 9.60009 9.33239 9.23463 9.18101C8.86918 9.02964 8.55682 8.77329 8.33706 8.44439C8.1173 8.1155 8 7.72882 8 7.33325" fill-rule="nonzero" stroke="rgb(255,255,255)" stroke-linecap="round" stroke-linejoin="round" stroke-width="1.333333" />
	<circle id="椭圆 3" cx="8.00002003" cy="5.33333349" r="1.33333337" stroke="rgb(255,255,255)" stroke-linecap="round" stroke-linejoin="round" stroke-width="1.333333" />
	<path id="矢量 17" d="M8 6.66675L8 14.6667" stroke="rgb(255,255,255)" stroke-linecap="round" stroke-linejoin="round" stroke-width="1.333333" />
	<path id="矢量 18" d="M12.6667 11.3333C9.86667 11.3333 8 12.4446 8 14.6666C10.8 14.6666 12.6667 13.5553 12.6667 11.3333Z" fill-rule="nonzero" stroke="rgb(255,255,255)" stroke-linecap="round" stroke-linejoin="round" stroke-width="1.333333" />
	<path id="矢量 19" d="M3.33331 11.3333C6.13331 11.3333 7.99998 12.4446 7.99998 14.6666C5.19998 14.6666 3.33331 13.5553 3.33331 11.3333Z" fill-rule="nonzero" stroke="rgb(255,255,255)" stroke-linecap="round" stroke-linejoin="round" stroke-width="1.333333" />
</svg>
