<svg viewBox="0 0 15 15" xmlns="http://www.w3.org/2000/svg" xmlns:xlink="http://www.w3.org/1999/xlink" width="15.000000" height="15.000000" fill="none" customFrame="#000000">
	<rect id="ruler" width="15.000000" height="15.000000" x="0.000000" y="0.000000" />
	<path id="矢量 38" d="M13.7025 10.2361C13.7709 10.4909 13.7709 10.7593 13.7025 11.0142C13.634 11.2691 13.4995 11.5013 13.3126 11.6876L11.6876 13.3126C11.5013 13.4995 11.269 13.634 11.0142 13.7025C10.7593 13.7709 10.4909 13.7709 10.2361 13.7025C9.98119 13.634 9.7489 13.4995 9.56262 13.3126L1.68762 5.43762C1.50169 5.25079 1.36805 5.01845 1.30003 4.76379C1.23202 4.50914 1.23202 4.2411 1.30003 3.98645C1.36805 3.7318 1.50169 3.49945 1.68762 3.31262L3.31262 1.68762C3.49945 1.50169 3.7318 1.36805 3.98645 1.30003C4.2411 1.23202 4.50914 1.23202 4.76379 1.30003C5.01845 1.36805 5.25079 1.50169 5.43762 1.68762L13.3126 9.56262C13.4995 9.7489 13.634 9.98119 13.7025 10.2361Z" fill-rule="nonzero" stroke="rgb(178,58,46)" stroke-linecap="round" stroke-linejoin="round" stroke-width="1.250000" />
	<path id="矢量 39" d="M9.0625 7.8125L10.3125 6.5625" stroke="rgb(178,58,46)" stroke-linecap="round" stroke-linejoin="round" stroke-width="1.250000" />
	<path id="矢量 40" d="M7.1875 5.9375L8.4375 4.6875" stroke="rgb(178,58,46)" stroke-linecap="round" stroke-linejoin="round" stroke-width="1.250000" />
	<path id="矢量 41" d="M5.3125 4.0625L6.5625 2.8125" stroke="rgb(178,58,46)" stroke-linecap="round" stroke-linejoin="round" stroke-width="1.250000" />
	<path id="矢量 42" d="M10.9375 9.6875L12.1875 8.4375" stroke="rgb(178,58,46)" stroke-linecap="round" stroke-linejoin="round" stroke-width="1.250000" />
</svg>
